<svg width="24" height="24" viewBox="0 0 24 24" fill="none" xmlns="http://www.w3.org/2000/svg">
<rect width="24" height="24" rx="12" fill="black"/>
<path fill-rule="evenodd" clip-rule="evenodd" d="M14.6562 8V7.09375C14.6562 6.49687 14.2031 6 13.5781 6H10.4188C9.79688 6 9.34375 6.49687 9.34375 7.09375V8H6.5V9H6.7875C6.7875 9 6.95625 9.01875 7.04375 9.10625C7.13125 9.19375 7.16562 9.3875 7.16562 9.3875L7.75937 16.9406C7.80625 17.8594 7.80625 18 8.88438 18H15.1156C16.1938 18 16.1938 17.8625 16.2406 16.9438L16.8344 9.39375C16.8344 9.39375 16.8688 9.19687 16.9563 9.10938C17.0438 9.02188 17.2125 9.00312 17.2125 9.00312H17.5V8.00312H14.6562V8V8ZM10 7.09375C10 6.79375 10.2438 6.625 10.5531 6.625H13.4188C13.7281 6.625 14 6.79688 14 7.09375V8H10V7.09375V7.09375ZM9.73435 16L9.41248 10H10.0469L10.375 16H9.73435V16ZM12.347 16H11.6595V10H12.347V16V16ZM14.2719 16H13.6344L13.9625 10H14.5969L14.2719 16V16Z" fill="white"/>
<mask id="mask0_1138_93" style="mask-type:luminance" maskUnits="userSpaceOnUse" x="6" y="6" width="12" height="12">
<path fill-rule="evenodd" clip-rule="evenodd" d="M14.6562 8V7.09375C14.6562 6.49687 14.2031 6 13.5781 6H10.4188C9.79688 6 9.34375 6.49687 9.34375 7.09375V8H6.5V9H6.7875C6.7875 9 6.95625 9.01875 7.04375 9.10625C7.13125 9.19375 7.16562 9.3875 7.16562 9.3875L7.75937 16.9406C7.80625 17.8594 7.80625 18 8.88438 18H15.1156C16.1938 18 16.1938 17.8625 16.2406 16.9438L16.8344 9.39375C16.8344 9.39375 16.8688 9.19687 16.9563 9.10938C17.0438 9.02188 17.2125 9.00312 17.2125 9.00312H17.5V8.00312H14.6562V8V8ZM10 7.09375C10 6.79375 10.2438 6.625 10.5531 6.625H13.4188C13.7281 6.625 14 6.79688 14 7.09375V8H10V7.09375V7.09375ZM9.73435 16L9.41248 10H10.0469L10.375 16H9.73435V16ZM12.347 16H11.6595V10H12.347V16V16ZM14.2719 16H13.6344L13.9625 10H14.5969L14.2719 16V16Z" fill="white"/>
</mask>
<g mask="url(#mask0_1138_93)">
<rect x="6" y="6" width="12" height="12" fill="white"/>
</g>
</svg>
