<svg width="24" height="24" viewBox="0 0 24 24" fill="none" xmlns="http://www.w3.org/2000/svg">
<path fill-rule="evenodd" clip-rule="evenodd" d="M12 0C5.37321 0 0 5.37321 0 12C0 18.6268 5.37321 24 12 24C18.6268 24 24 18.6268 24 12C24 5.37321 18.6268 0 12 0V0ZM18.1554 7.9874L10.7036 17.5499C10.6447 17.6088 10.5482 17.7374 10.4304 17.7374C10.3072 17.7374 10.2268 17.6517 10.1572 17.582C10.0875 17.5124 5.93038 13.516 5.93038 13.516L5.85002 13.4356C5.81788 13.3874 5.79109 13.3285 5.79109 13.2642C5.79109 13.1999 5.81788 13.141 5.85002 13.0928C5.87145 13.0713 5.88752 13.0553 5.90895 13.0285C6.32145 12.5945 7.15716 11.716 7.21073 11.6624C7.28038 11.5928 7.33931 11.5017 7.46788 11.5017C7.60181 11.5017 7.68752 11.6142 7.75181 11.6785C7.81609 11.7428 10.1625 13.9981 10.1625 13.9981L16.125 6.3374C16.1786 6.29454 16.2429 6.2624 16.3125 6.2624C16.3822 6.2624 16.4464 6.28919 16.5 6.33204L18.1393 7.62312C18.1822 7.67669 18.2089 7.74097 18.2089 7.81062C18.2143 7.88026 18.1875 7.93919 18.1554 7.9874V7.9874Z" fill="black"/>
<mask id="mask0_1141_94" style="mask-type:luminance" maskUnits="userSpaceOnUse" x="0" y="0" width="24" height="24">
<path fill-rule="evenodd" clip-rule="evenodd" d="M12 0C5.37321 0 0 5.37321 0 12C0 18.6268 5.37321 24 12 24C18.6268 24 24 18.6268 24 12C24 5.37321 18.6268 0 12 0V0ZM18.1554 7.9874L10.7036 17.5499C10.6447 17.6088 10.5482 17.7374 10.4304 17.7374C10.3072 17.7374 10.2268 17.6517 10.1572 17.582C10.0875 17.5124 5.93038 13.516 5.93038 13.516L5.85002 13.4356C5.81788 13.3874 5.79109 13.3285 5.79109 13.2642C5.79109 13.1999 5.81788 13.141 5.85002 13.0928C5.87145 13.0713 5.88752 13.0553 5.90895 13.0285C6.32145 12.5945 7.15716 11.716 7.21073 11.6624C7.28038 11.5928 7.33931 11.5017 7.46788 11.5017C7.60181 11.5017 7.68752 11.6142 7.75181 11.6785C7.81609 11.7428 10.1625 13.9981 10.1625 13.9981L16.125 6.3374C16.1786 6.29454 16.2429 6.2624 16.3125 6.2624C16.3822 6.2624 16.4464 6.28919 16.5 6.33204L18.1393 7.62312C18.1822 7.67669 18.2089 7.74097 18.2089 7.81062C18.2143 7.88026 18.1875 7.93919 18.1554 7.9874V7.9874Z" fill="white"/>
</mask>
<g mask="url(#mask0_1141_94)">
<rect width="24" height="24" fill="black"/>
</g>
</svg>
